<?xml version="1.0" encoding="utf-8"?>
<!-- Generator: Adobe Illustrator 18.1.1, SVG Export Plug-In . SVG Version: 6.00 Build 0)  -->
<svg version="1.1" id="Layer_2" xmlns="http://www.w3.org/2000/svg" xmlns:xlink="http://www.w3.org/1999/xlink" x="0px" y="0px"
	 viewBox="0 0 18.9 27.5" enable-background="new 0 0 18.9 27.5" xml:space="preserve">
<g>
	<path d="M8.5,13.7c0-1.8-1.5-3.3-3.3-3.3c-0.2,0-0.4,0.2-0.4,0.4c0,0.2,0.2,0.4,0.4,0.4c1.3,0,2.4,1.1,2.4,2.4
		c0,0.2,0.2,0.4,0.4,0.4C8.3,14.2,8.5,14,8.5,13.7z"/>
	<path d="M14.7,2.9c0.7,0,1.4,0.6,1.4,1.4c0,0.2,0.2,0.4,0.4,0.4c0.2,0,0.4-0.2,0.4-0.4c0-1.2-1-2.2-2.2-2.2c-0.2,0-0.4,0.2-0.4,0.4
		S14.4,2.9,14.7,2.9z"/>
	<path d="M14.7,19c-1.1,0-2.1,0.4-2.8,1.1l-2.8-2.9c0.8-0.9,1.3-2.1,1.3-3.4c0-1.3-0.5-2.4-1.2-3.3L12,7.5c0.7,0.6,1.7,0.9,2.7,0.9
		c2.3,0,4.2-1.9,4.2-4.2S17,0,14.7,0s-4.2,1.9-4.2,4.2c0,1,0.4,1.9,0.9,2.7L8.5,9.8C7.6,9,6.5,8.5,5.2,8.5C2.3,8.5,0,10.9,0,13.7
		s2.3,5.2,5.2,5.2c1.2,0,2.4-0.4,3.2-1.1l2.8,3c-0.5,0.7-0.8,1.6-0.8,2.5c0,2.3,1.9,4.2,4.2,4.2s4.2-1.9,4.2-4.2S17,19,14.7,19z
		 M14.7,0.9c1.8,0,3.4,1.5,3.4,3.4s-1.5,3.4-3.4,3.4s-3.4-1.5-3.4-3.4S12.8,0.9,14.7,0.9z M0.9,13.7c0-2.4,1.9-4.3,4.3-4.3
		s4.3,1.9,4.3,4.3S7.6,18,5.2,18S0.9,16.1,0.9,13.7z M14.7,26.6c-1.8,0-3.4-1.5-3.4-3.4c0-1.8,1.5-3.4,3.4-3.4s3.4,1.5,3.4,3.4
		C18,25.1,16.5,26.6,14.7,26.6z"/>
	<path d="M14.7,21c-0.2,0-0.4,0.2-0.4,0.4c0,0.2,0.2,0.4,0.4,0.4c0.7,0,1.4,0.6,1.4,1.4c0,0.2,0.2,0.4,0.4,0.4
		c0.2,0,0.4-0.2,0.4-0.4C16.9,22,15.9,21,14.7,21z"/>
</g>
</svg>
