<?xml version="1.0" encoding="utf-8"?>
<!-- Generator: Adobe Illustrator 18.1.1, SVG Export Plug-In . SVG Version: 6.00 Build 0)  -->
<svg version="1.1" id="Layer_1" xmlns="http://www.w3.org/2000/svg" xmlns:xlink="http://www.w3.org/1999/xlink" x="0px" y="0px"
	 viewBox="0 0 59.7 56" enable-background="new 0 0 59.7 56" xml:space="preserve">
<g>
	<path fill="#FFFFFF" d="M30.7,1c-16,0-29,11.6-29,26c0,5.3,1.8,10.2,4.8,14.3C6.1,46.1,4.9,52.8,1.7,56c0,0,9.9-1.4,16.7-5.5
		c0,0,0,0,0,0c2.8-1.8,5.5-3.7,6.1-4.1c0.3-0.4,0.9-0.5,1.3-0.3c0.3,0.2,0.5,0.5,0.5,0.8c0,0.6,0,0.8-5.6,4.4c3.1,1,6.5,1.6,10,1.6
		c16,0,29-11.6,29-26S46.7,1,30.7,1z"/>
	<circle fill="#40404C" cx="16.7" cy="27" r="3"/>
	<circle fill="#40404C" cx="30.7" cy="27" r="3"/>
	<circle fill="#40404C" cx="44.7" cy="27" r="3"/>
</g>
</svg>
