<?xml version="1.0" encoding="utf-8"?>
<!-- Generator: Adobe Illustrator 18.1.1, SVG Export Plug-In . SVG Version: 6.00 Build 0)  -->
<svg version="1.1" id="Layer_1" xmlns="http://www.w3.org/2000/svg" xmlns:xlink="http://www.w3.org/1999/xlink" x="0px" y="0px"
	 viewBox="0 0 43.3 43.4" enable-background="new 0 0 43.3 43.4" xml:space="preserve">
<g>
	<path fill="#C5C5C5" d="M25.2,35.1c0-3.8,2.5-7.2,5.9-8.3c-2.4,0-4.6-0.2-5.5-1.4c-1-1.2-1-3.1-0.6-5c0-0.1,0-0.3,0-0.5
		c1.8-1.9,2.9-4.8,2.9-8c0-0.8,0.2-1.5,0.1-2.2c0.1,0.1,0.4,0.2,0.4,0.2V8.6c1,0.7,1,1.4,1,1.4V7.4c0,0,0,0,0-1.7
		c0-0.6-0.8-1.2-1.4-1.7c-0.9-0.8-2.2-1.2-3.3-1.3c-0.8,0-2.2-0.3-3.7-1.2c-1.1-0.7-2.2-0.8-3.1-0.7c-1.8-0.1-3.3,0.7-3.3,0.7
		l-3.1,2c0,0-3.2,6.1-1.7,4.2c0.1-0.1,0.1-0.2,0.2-0.2c0.2-0.3,0.5-0.5,0.8-0.7c-0.5,1.1-0.8,1.8-0.1,0.9c0.1-0.1,0.1-0.2,0.2-0.2
		c0.4-0.5,0.9-0.8,1.4-1.1C11.3,8,10.8,9.9,10.8,12c0,3.2,1.1,6.1,2.9,8c0,0.1,0,0.3,0,0.4c0.4,1.9,0.4,3.7-0.6,4.9
		c-1.4,1.7-5.3,1.1-8.9,1.4c-2.9,0.2-3.1,10.7-3.1,14.6c0,0.9,0.8,2.1,1.7,2.1h16.5h9.5C26.6,41.4,25.2,38.1,25.2,35.1z"/>
	<path fill="#C5C5C5" d="M35.2,27c-4.5,0-8.1,3.6-8.1,8.1c0,4.5,3.6,8.1,8.1,8.1c4.5,0,8.1-3.6,8.1-8.1C43.3,30.6,39.7,27,35.2,27z
		 M40,31.8l-4.7,8c0,0.1,0,0.2-0.1,0.3c-0.2,0.2-0.4,0.4-0.7,0.4c-0.1,0-0.1,0-0.2,0c0,0-0.1,0-0.1,0c-0.1,0-0.3-0.1-0.4-0.2v0
		c0,0,0,0-0.1-0.1l-3.9-2.7c-0.4-0.3-0.5-0.8-0.3-1.3c0.3-0.4,0.8-0.5,1.3-0.3l3.3,2.2l4.4-7.6c0.3-0.4,0.9-0.5,1.3-0.2
		C40.2,30.9,40.3,31.4,40,31.8z"/>
</g>
</svg>
