<?xml version="1.0" encoding="utf-8"?>
<!-- Generator: Adobe Illustrator 18.1.1, SVG Export Plug-In . SVG Version: 6.00 Build 0)  -->
<svg version="1.1" id="Layer_1" xmlns="http://www.w3.org/2000/svg" xmlns:xlink="http://www.w3.org/1999/xlink" x="0px" y="0px"
	 viewBox="0 0 44.7 44.7" enable-background="new 0 0 44.7 44.7" xml:space="preserve">
<g>
	<g>
		<defs>
			<rect id="SVGID_1_" x="0.3" y="-0.5" width="44.9" height="45.8"/>
		</defs>
		<clipPath id="SVGID_2_">
			<use xlink:href="#SVGID_1_"  overflow="visible"/>
		</clipPath>
		<path clip-path="url(#SVGID_2_)" d="M42.3,2.3c-2.8-2.8-7.4-2.8-10.2,0L3.3,31.1c0,0,0,0,0,0c0,0,0,0,0,0.1c0,0.1-0.1,0.1-0.1,0.2
			c0,0,0,0,0,0.1c0,0,0,0,0,0L0.3,43.4c0,0.1,0,0.1,0,0.2c0,0,0,0,0,0c0,0.1,0,0.2,0.1,0.3c0,0,0,0,0,0.1c0,0.1,0.1,0.2,0.2,0.2
			c0.1,0.1,0.2,0.1,0.3,0.2c0.1,0,0.2,0.1,0.3,0.1c0.1,0,0.1,0,0.2,0l11.9-2.8c0,0,0,0,0.1,0c0,0,0.1,0,0.1,0c0.1,0,0.1-0.1,0.2-0.1
			c0,0,0,0,0.1,0c0,0,0,0,0,0l28.9-28.8C45.2,9.7,45.2,5.1,42.3,2.3L42.3,2.3z M41.2,3.4c2,2,2.2,5.1,0.5,7.3l-7.8-7.8
			C36.1,1.3,39.2,1.4,41.2,3.4L41.2,3.4z M37.3,15.3l-7.9-7.9l1.1-1.1l7.9,7.9L37.3,15.3z M4.2,40.4c-0.3-0.3-0.8-0.3-1.1,0L2.5,41
			l2-8.6L8.1,32l-0.5,4.1c0,0,0,0.1,0,0.1c0,0,0,0.1,0,0.1c0,0,0,0.1,0,0.1c0,0,0,0.1,0,0.1c0,0.1,0,0.1,0.1,0.1
			c0,0,0.1,0.1,0.1,0.1c0,0,0.1,0.1,0.1,0.1c0,0,0.1,0,0.1,0.1c0.1,0,0.1,0,0.2,0.1c0,0,0.1,0,0.1,0c0,0,0.1,0,0.1,0h0
			c0,0,0.1,0,0.1,0l4.1-0.5l-0.4,3.5l-8.6,2l0.6-0.6C4.5,41.2,4.5,40.7,4.2,40.4L4.2,40.4z M14.3,36l17.9-17.9
			c0.3-0.3,0.3-0.8,0-1.1c-0.3-0.3-0.8-0.3-1.1,0L13.1,34.9l-3.8,0.4l0.4-3.8l17.9-17.9c0.3-0.3,0.3-0.8,0-1.1
			c-0.3-0.3-0.8-0.3-1.1,0L8.6,30.4l-2.5,0.3L28.2,8.5l7.9,7.9L14,38.6L14.3,36z M39.5,13l-7.9-7.9L32.7,4l7.9,7.9L39.5,13z
			 M39.5,13"/>
	</g>
</g>
</svg>
