<?xml version="1.0" encoding="utf-8"?>
<!-- Generator: Adobe Illustrator 18.1.1, SVG Export Plug-In . SVG Version: 6.00 Build 0)  -->
<svg version="1.1" id="Layer_2" xmlns="http://www.w3.org/2000/svg" xmlns:xlink="http://www.w3.org/1999/xlink" x="0px" y="0px"
	 viewBox="12 42 970 906" enable-background="new 12 42 970 906" xml:space="preserve">
<g>
	<path d="M973.2,318.8c-14-151.6-122.7-261.6-258.9-261.6c-90.7,0-173.7,48.2-220.5,125.3C447.6,104.3,368,57.1,278.7,57.1
		c-136.1,0-244.9,110-258.8,261.6c-1.1,6.7-5.6,41.9,8.1,99.4c19.8,82.9,65.6,158.3,132.4,218l333.2,298.4l339-298.4
		c66.8-59.7,112.6-135.1,132.4-218.1C978.8,360.7,974.3,325.5,973.2,318.8z M929.3,409.9c-18.1,75.7-60.1,144.7-121.2,199.4
		L493.9,885.8L185.2,609.3C123.9,554.5,81.9,485.6,63.8,409.8c-13-54.4-7.7-85.1-7.7-85.3l0.3-1.8c12-132.8,105.4-229.3,222.3-229.3
		c86.2,0,162.1,52.3,198.1,136.4l16.9,39.6l16.9-39.6C546.2,147,626.1,93.4,714.4,93.4c116.8,0,210.3,96.4,222.5,231
		C936.9,324.7,942.3,355.5,929.3,409.9z"/>
</g>
</svg>
