<?xml version="1.0" encoding="utf-8"?>
<!-- Generator: Adobe Illustrator 18.1.1, SVG Export Plug-In . SVG Version: 6.00 Build 0)  -->
<svg version="1.1" id="Layer_2" xmlns="http://www.w3.org/2000/svg" xmlns:xlink="http://www.w3.org/1999/xlink" x="0px" y="0px"
	 viewBox="12 42 970 906" enable-background="new 12 42 970 906" xml:space="preserve">
<path fill="#FE8A71" stroke="#FE8A71" stroke-miterlimit="10" d="M963.1,417c14.8-55.4,11.1-92.3,7.4-95.9
	C955.7,169.7,848.7,59,712.2,59c-88.6,0-173.4,48-217.7,125.5C450.2,103.3,369,55.4,280.4,55.4c-136.5,0-243.5,110.7-258.3,262
	c0,7.4-7.4,40.6,7.4,99.6C48,501.8,95.9,575.6,162.4,634.7l332.1,298.9l335.8-298.9c24.3-21.6,45.7-45.8,64.1-71.6
	c12.1-15.7,22.7-33,31.6-51.5C941.9,481.3,954.3,449.4,963.1,417z M214.9,103.1c6.2-2.1,12.5-4,19-5.5
	C227.4,99.2,221.1,101,214.9,103.1z"/>
</svg>
