<?xml version="1.0" encoding="utf-8"?>
<!-- Generator: Adobe Illustrator 18.1.1, SVG Export Plug-In . SVG Version: 6.00 Build 0)  -->
<svg version="1.1" id="Layer_2" xmlns="http://www.w3.org/2000/svg" xmlns:xlink="http://www.w3.org/1999/xlink" x="0px" y="0px"
	 viewBox="0 0 80.4 88.6" enable-background="new 0 0 80.4 88.6" xml:space="preserve">
<path fill="#FFFFFF" d="M80.2,40.6L41.1,0.4c-0.5-0.5-1.3-0.5-1.8,0L0.2,40.6C0.1,40.8,0,41,0,41.2v46.1c0,0.8,0.6,1.4,1.4,1.4h22.5
	c0.8,0,1.4-0.6,1.4-1.4V59.3c0-0.8,0.6-1.4,1.4-1.4h27.1c0.8,0,1.4,0.6,1.4,1.4v27.9c0,0.8,0.6,1.4,1.4,1.4H79
	c0.8,0,1.4-0.6,1.4-1.4v-46C80.4,41,80.3,40.7,80.2,40.6z"/>
</svg>
