<?xml version="1.0" encoding="utf-8"?>
<!-- Generator: Adobe Illustrator 16.0.0, SVG Export Plug-In . SVG Version: 6.00 Build 0)  -->
<!DOCTYPE svg PUBLIC "-//W3C//DTD SVG 1.1//EN" "http://www.w3.org/Graphics/SVG/1.1/DTD/svg11.dtd">
<svg version="1.1" id="Layer_1" xmlns="http://www.w3.org/2000/svg" xmlns:xlink="http://www.w3.org/1999/xlink" x="0px" y="0px"
	 width="42.107px" height="42.567px" viewBox="0 0 42.107 42.567" enable-background="new 0 0 42.107 42.567" xml:space="preserve">
<g>
	<defs>
		<rect id="SVGID_1_" width="42.107" height="42.567"/>
	</defs>
	<clipPath id="SVGID_2_">
		<use xlink:href="#SVGID_1_"  overflow="visible"/>
	</clipPath>
	<path clip-path="url(#SVGID_2_)" fill="#8F8F8F" d="M23.98,34.36c0-3.783,2.456-7.22,5.859-8.35c-2.425-0.038-4.57-0.249-5.529-1.4
		c-1.022-1.228-0.998-3.11-0.582-4.987c0.033-0.15,0.044-0.327,0.038-0.472c1.781-1.941,2.908-4.803,2.908-7.978
		c0-0.766,0.21-1.523,0.086-2.249c0.075,0.132,0.395,0.204,0.395,0.204V7.771c1,0.743,1,1.357,1,1.357V6.612V4.936
		c0-0.641-0.804-1.241-1.352-1.738c-0.865-0.785-2.169-1.196-3.329-1.252c-0.833-0.041-2.173-0.293-3.665-1.201
		c-1.08-0.657-2.204-0.798-3.118-0.728c-1.838-0.147-3.299,0.728-3.299,0.728L10.269,2.7c0,0-3.231,6.147-1.741,4.191
		C8.59,6.811,8.65,6.732,8.713,6.657c0.229-0.269,0.484-0.505,0.76-0.711C8.97,7.028,8.699,7.761,9.362,6.892
		C9.424,6.811,9.486,6.732,9.55,6.657c0.39-0.459,0.859-0.827,1.376-1.101c-0.818,1.626-1.28,3.545-1.28,5.615
		c0,3.193,1.142,6.05,2.942,7.988c-0.002,0.133,0.01,0.269,0.04,0.406c0.416,1.877,0.441,3.703-0.581,4.93
		c-1.397,1.677-5.309,1.118-8.942,1.397C0.229,26.115-0.02,36.566,0.001,40.446c0.005,0.922,0.754,2.12,1.677,2.12h16.515h9.536
		C25.467,40.566,23.98,37.302,23.98,34.36"/>
	<path clip-path="url(#SVGID_2_)" fill="#8F8F8F" d="M34.005,26.228c-4.474,0-8.102,3.628-8.102,8.102
		c0,4.476,3.628,8.104,8.102,8.104c4.476,0,8.103-3.628,8.103-8.104C42.107,29.856,38.48,26.228,34.005,26.228 M38.808,31.048
		l-4.649,8.024c-0.024,0.09-0.049,0.18-0.102,0.262c-0.151,0.239-0.398,0.37-0.659,0.401c-0.054,0.009-0.105,0.005-0.158,0.005
		c-0.045-0.003-0.088-0.001-0.132-0.01c-0.148-0.023-0.294-0.069-0.419-0.167c-0.024-0.02-0.036-0.046-0.058-0.067l-3.896-2.669
		c-0.422-0.269-0.549-0.833-0.279-1.255c0.268-0.422,0.833-0.548,1.255-0.279l3.261,2.234l4.404-7.599
		c0.308-0.395,0.882-0.465,1.276-0.156C39.046,30.081,39.116,30.655,38.808,31.048"/>
</g>
</svg>
