<?xml version="1.0" encoding="utf-8"?>
<!-- Generator: Adobe Illustrator 18.1.1, SVG Export Plug-In . SVG Version: 6.00 Build 0)  -->
<svg version="1.1" id="Layer_1" xmlns="http://www.w3.org/2000/svg" xmlns:xlink="http://www.w3.org/1999/xlink" x="0px" y="0px"
	 viewBox="0 0 70 70" enable-background="new 0 0 70 70" xml:space="preserve">
<circle fill="#FE8A71" cx="34.9" cy="34.9" r="34.7"/>
<path fill-rule="evenodd" clip-rule="evenodd" fill="#FFFFFF" d="M34.9,57.8c5.5,0,10.8-0.8,16-2.4c1.1-0.3,1.5-1.1,1.4-2.4
	c-0.2-7.8-4.1-14.1-11.7-18.9c-1.2-0.9-1.2-2.1-0.1-3.6l5-6.8c0.6-0.7,0.6-1.4-0.1-2.1c-3.9-3.7-7.4-3.6-10.5,0
	c-3.1-3.7-6.6-3.7-10.5,0c-0.7,0.7-0.8,1.4-0.1,2.1l5,6.8c1.2,1.5,1.1,2.7-0.1,3.6C21.6,38.9,17.7,45.2,17.5,53
	c-0.1,1.4,0.4,2.2,1.4,2.4c1.3,0.4,2.7,0.8,4,1.1l0,0c-0.7-1.7-1.1-3.5-1.1-5.4c0-2.1,0.4-4.2,1.3-6.1c1.1-2.4,2.6-4.2,4.6-5.5
	c2-1.3,4.4-1.9,7.2-1.9c2.2,0,4.2,0.4,5.9,1.3c1.7,0.9,3.1,2.2,4.1,4c0.9,1.5,1.3,3.2,1.3,5c0,2.6-0.9,4.8-2.7,6.8
	c-1.6,1.8-3.4,2.7-5.3,2.7c-0.6,0-1.1-0.1-1.5-0.3c-0.4-0.2-0.7-0.5-0.8-0.8c-0.1-0.2-0.2-0.6-0.3-1.1c-0.6,0.7-1.2,1.2-1.9,1.6
	c-0.7,0.4-1.4,0.6-2.1,0.6c-0.8,0-1.5-0.2-2.3-0.7c-0.7-0.5-1.3-1.2-1.8-2.1c-0.5-1-0.7-2-0.7-3.1c0-1.4,0.4-2.8,1.1-4.2
	c0.7-1.4,1.6-2.5,2.7-3.2c1.1-0.7,2.1-1.1,3.1-1.1c0.8,0,1.5,0.2,2.2,0.6c0.7,0.4,1.3,1,1.8,1.8l0.5-2.1h2.4l-1.9,8.9
	c-0.3,1.2-0.4,1.9-0.4,2.1c0,0.2,0.1,0.4,0.3,0.6c0.2,0.2,0.4,0.3,0.7,0.3c0.5,0,1.1-0.3,1.8-0.8c1-0.7,1.8-1.6,2.4-2.8
	c0.6-1.2,0.9-2.4,0.9-3.7c0-1.5-0.4-2.8-1.1-4.1c-0.8-1.3-1.9-2.3-3.4-3.1c-1.5-0.8-3.2-1.1-5-1.1c-2.1,0-4,0.5-5.7,1.4
	c-1.7,1-3,2.3-4,4.2c-0.9,1.8-1.4,3.7-1.4,5.8c0,2.2,0.5,4,1.4,5.6c0.1,0.2,0.2,0.4,0.4,0.6C28.7,57.6,31.8,57.8,34.9,57.8
	L34.9,57.8z M23.1,23.5h-2.3c-0.4,0-0.7-0.3-0.7-0.7c0-2.4,3.3-4.1,5.1-5c2.4-1.2,5.1-2.1,7.7-2.8c0.1,0,0.1,0,0.2,0h1.2v-1.7
	c0-0.4,0.3-0.7,0.7-0.7c0.9,0,1.7-0.8,1.7-1.7c0-0.9-0.8-1.7-1.7-1.7c-0.9,0-1.7,0.8-1.7,1.7c0,0.4-0.3,0.7-0.7,0.7
	c-0.4,0-0.7-0.3-0.7-0.7c0-1.7,1.4-3,3-3c1.7,0,3,1.4,3,3c0,1.3-0.9,2.5-2.1,2.9l-0.2,0.1v1.1h1.2c0.1,0,0.1,0,0.2,0
	c2.6,0.7,5.3,1.7,7.7,2.8c1.8,0.9,5.1,2.6,5.1,5c0,0.4-0.3,0.7-0.7,0.7h-2.3c0.1-0.4,0.1-0.9,0-1.3h1.5l-0.4-0.5
	c-0.9-1.1-2.6-2-3.8-2.6c-2.3-1.1-4.9-2-7.3-2.7l0,0h-3.6l0,0c-2.5,0.7-5,1.6-7.3,2.7c-1.2,0.6-3,1.5-3.8,2.6l-0.4,0.5h1.5
	C22.9,22.6,22.9,23.1,23.1,23.5L23.1,23.5z M29.4,51.5c0-0.8,0.1-1.6,0.4-2.5c0.3-0.9,0.7-1.7,1.1-2.3c0.5-0.6,1-1.1,1.4-1.4
	c0.5-0.3,1-0.4,1.6-0.4c0.9,0,1.6,0.3,2.2,1c0.6,0.7,0.9,1.6,0.9,2.8c0,0.9-0.2,1.8-0.5,2.7c-0.3,0.9-0.7,1.6-1.2,2.2
	c-0.5,0.6-1,1-1.6,1.3c-0.6,0.3-1.1,0.4-1.6,0.4c-0.7,0-1.4-0.3-2-1C29.7,53.7,29.4,52.7,29.4,51.5z"/>
</svg>
