<?xml version="1.0" encoding="utf-8"?>
<!-- Generator: Adobe Illustrator 18.1.1, SVG Export Plug-In . SVG Version: 6.00 Build 0)  -->
<svg version="1.1" id="Layer_2" xmlns="http://www.w3.org/2000/svg" xmlns:xlink="http://www.w3.org/1999/xlink" x="0px" y="0px"
	 viewBox="0 0 24 24.5" enable-background="new 0 0 24 24.5" xml:space="preserve">
<g>
	<path d="M19.7,0h-1.2h-14H0v24.5h3.5H20h4V4.3L19.7,0z M17.5,1v7h-12V1H17.5z M4.5,23.5V14H19v9.5H4.5z M23,23.5h-3V13H3.5v10.5H1
		V1h3.5v8h14V1h0.8L23,4.7V23.5z"/>
	<path d="M6.5,16.5H10c0.3,0,0.5-0.2,0.5-0.5s-0.2-0.5-0.5-0.5H6.5C6.2,15.5,6,15.7,6,16C6,16.3,6.2,16.5,6.5,16.5z"/>
	<path d="M11.5,17.5h-5C6.2,17.5,6,17.7,6,18s0.2,0.5,0.5,0.5h5c0.3,0,0.5-0.2,0.5-0.5S11.8,17.5,11.5,17.5z"/>
	<path d="M12.6,17.6c-0.1,0.1-0.1,0.2-0.1,0.4s0.1,0.3,0.1,0.4c0.1,0.1,0.2,0.1,0.4,0.1c0.1,0,0.3-0.1,0.4-0.1
		c0.1-0.1,0.1-0.2,0.1-0.4s-0.1-0.3-0.1-0.4C13.2,17.5,12.8,17.5,12.6,17.6z"/>
	<path d="M16.5,2h-3v5h3V2z M15.5,6h-1V3h1V6z"/>
</g>
</svg>
